<mxfile host="65bd71144e">
    <diagram id="iwtrfTv7lDMr9XAlOIzn" name="Page-1">
        <mxGraphModel dx="832" dy="539" grid="1" gridSize="10" guides="1" tooltips="1" connect="1" arrows="1" fold="1" page="1" pageScale="1" pageWidth="827" pageHeight="1169" math="0" shadow="0">
            <root>
                <mxCell id="0"/>
                <mxCell id="1" parent="0"/>
                <mxCell id="8" value="" style="rounded=1;whiteSpace=wrap;html=1;strokeWidth=3;arcSize=0;" vertex="1" parent="1">
                    <mxGeometry x="100" y="120" width="430" height="360" as="geometry"/>
                </mxCell>
                <mxCell id="9" value="SBC" style="outlineConnect=0;dashed=0;verticalLabelPosition=bottom;verticalAlign=top;align=center;html=1;shape=mxgraph.aws3.hardware_board;fillColor=#5294CF;gradientColor=none;fontStyle=1" vertex="1" parent="1">
                    <mxGeometry x="133" y="318.75" width="84" height="100.5" as="geometry"/>
                </mxCell>
                <mxCell id="10" value="Ketinggian Air&lt;br&gt;Relay Pengisian Air&lt;br&gt;Relay Tenakan Air" style="sketch=0;outlineConnect=0;fontColor=#232F3E;gradientColor=none;fillColor=#3F8624;strokeColor=none;dashed=0;verticalLabelPosition=bottom;verticalAlign=top;align=center;html=1;fontSize=12;fontStyle=1;aspect=fixed;pointerEvents=1;shape=mxgraph.aws4.hardware_board;" vertex="1" parent="1">
                    <mxGeometry x="400" y="160" width="78" height="78" as="geometry"/>
                </mxCell>
                <mxCell id="11" value="Water Flow Sensor&lt;br&gt;Relay Valve Eletrik" style="sketch=0;outlineConnect=0;fontColor=#232F3E;gradientColor=none;fillColor=#3F8624;strokeColor=none;dashed=0;verticalLabelPosition=bottom;verticalAlign=top;align=center;html=1;fontSize=12;fontStyle=1;aspect=fixed;pointerEvents=1;shape=mxgraph.aws4.hardware_board;" vertex="1" parent="1">
                    <mxGeometry x="400" y="330" width="78" height="78" as="geometry"/>
                </mxCell>
                <mxCell id="12" value="" style="endArrow=classic;startArrow=classic;html=1;strokeWidth=2;exitX=1;exitY=0.2;exitDx=0;exitDy=0;exitPerimeter=0;" edge="1" parent="1" source="9" target="10">
                    <mxGeometry width="50" height="50" relative="1" as="geometry">
                        <mxPoint x="350" y="380" as="sourcePoint"/>
                        <mxPoint x="400" y="330" as="targetPoint"/>
                        <Array as="points">
                            <mxPoint x="300" y="340"/>
                            <mxPoint x="300" y="200"/>
                        </Array>
                    </mxGeometry>
                </mxCell>
                <mxCell id="13" value="" style="endArrow=classic;startArrow=classic;html=1;strokeWidth=2;exitX=1;exitY=0.8;exitDx=0;exitDy=0;exitPerimeter=0;" edge="1" parent="1" source="9" target="11">
                    <mxGeometry width="50" height="50" relative="1" as="geometry">
                        <mxPoint x="227" y="348.85" as="sourcePoint"/>
                        <mxPoint x="410" y="209.2805755395683" as="targetPoint"/>
                        <Array as="points">
                            <mxPoint x="300" y="399"/>
                            <mxPoint x="300" y="370"/>
                        </Array>
                    </mxGeometry>
                </mxCell>
                <mxCell id="14" value="REDESIGN" style="text;html=1;strokeColor=none;fillColor=none;align=center;verticalAlign=middle;whiteSpace=wrap;rounded=0;strokeWidth=3;fontStyle=1;fontSize=24;" vertex="1" parent="1">
                    <mxGeometry x="170" y="170" width="60" height="30" as="geometry"/>
                </mxCell>
            </root>
        </mxGraphModel>
    </diagram>
</mxfile>